{"title":"Shiela Ki Jawani (Tees Maar Khan) (Extended) [chitra.dmj]","uid":6004051,"size":45596765,"categoryP":"video","categoryS":"music_videos","magnet":"?xt=urn:btih:b63ce530e4faf90e0a17ac0a761e9ceb02fa8e2c&amp;dn=Shiela+Ki+Jawani+%28Tees+Maar+Khan%29+%28Extended%29+%5Bchitra.dmj%5D&amp;tr=udp%3A%2F%2Ftracker.openbittorrent.com%3A80&amp;tr=udp%3A%2F%2Fopen.demonii.com%3A1337&amp;tr=udp%3A%2F%2Ftracker.coppersurfer.tk%3A6969&amp;tr=udp%3A%2F%2Fexodus.desync.com%3A6969","seeders":0,"leechers":1,"uploader":"chitra_dmj","files":4,"time":1291267876,"description":"General\nComplete name                    : Shiela Ki Jawani (Tees Maar\nFormat                           : Matroska\nFile size                        : 43.5 MiB\nDuration                         : 2mn 19s\nOverall bit rate                 : 2 624 Kbps\nWriting application              : Lavf52.61.0\nWriting library                  : Lavf52.61.0\n\nVideo\nID                               : 1\nFormat                           : MPEG-4 Visual\nFormat profile                   : Advanced Simple@L5\nFormat settings, BVOP            : Yes\nFormat settings, QPel            : No\nFormat settings, GMC             : No warppoints\nFormat settings, Matrix          : Default (H.263)\nCodec ID                         : V_MPEG4/ISO/ASP\nCodec ID/Info                    : Advanced Simple Profile\nDuration                         : 2mn 19s\nBit rate                         : 2 443 Kbps\nWidth                            : 660 pixels\nHeight                           : 302 pixels\nDisplay aspect ratio             : 2.2:1\nFrame rate                       : 25.000 fps\nColor space                      : YUV\nChroma subsampling               : 4:2:0\nBit depth                        : 8 bits\nScan type                        : Progressive\nBits/(Pixel*Frame)               : 0.490\nStream size                      : 40.5 MiB (93%)\nWriting library                  : XviD 1.2.1 (UTC 2008-12-04)\n\nAudio\nID                               : 2\nFormat                           : MPEG Audio\nFormat version                   : Version 1\nFormat profile                   : Layer 3\nMode                             : Joint stereo\nMode extension                   : MS Stereo\nCodec ID                         : A_MPEG/L3\nCodec ID/Hint                    : MP3\nDuration                         : 2mn 19s\nBit rate mode                    : Constant\nBit rate                         : 128 Kbps\nChannel(s)                       : 2 channels\nSampling rate                    : 44.1 KHz\nVideo delay                      : -40ms\nStream size                      : 2.12 MiB (5%)\nWriting library                  : LAME3.97\n\n &lt;a href=&quot;\nhttp://img227.imageshack.us/img227/4557/80thumbs20101202091249.jpg&quot; rel=&quot;nofollow&quot; target=&quot;_NEW&quot;&gt;\nhttp://img227.imageshack.us/img227/4557/80thumbs20101202091249.jpg&lt;/a&gt;\n\n","torrent":{"xt":"urn:btih:b63ce530e4faf90e0a17ac0a761e9ceb02fa8e2c","amp;dn":"Shiela+Ki+Jawani+%28Tees+Maar+Khan%29+%28Extended%29+%5Bchitra.dmj%5D","amp;tr":["udp%3A%2F%2Ftracker.openbittorrent.com%3A80","udp%3A%2F%2Fopen.demonii.com%3A1337","udp%3A%2F%2Ftracker.coppersurfer.tk%3A6969","udp%3A%2F%2Fexodus.desync.com%3A6969"],"infoHash":"b63ce530e4faf90e0a17ac0a761e9ceb02fa8e2c","infoHashBuffer":{"type":"Buffer","data":[182,60,229,48,228,250,249,14,10,23,172,10,118,30,156,235,2,250,142,44]},"announce":[],"urlList":[]}}